<svg width="148" height="50" viewBox="0 0 148 50" fill="none" xmlns="http://www.w3.org/2000/svg">
<path d="M113.834 21.7032C113.834 22.3293 113.757 22.945 113.606 23.552L113.065 25.9142C112.573 28.0196 111.556 29.5233 110.022 30.4234C108.485 31.3235 106.248 31.7744 103.306 31.7744H101.458L100.401 35.9576C100.136 37.0103 99.1891 37.7491 98.1017 37.7491H93.8317C93.7173 37.7491 93.6791 37.7023 93.7173 37.6069L98.2595 17.5478H106.605C109.09 17.5478 110.915 17.8704 112.082 18.5156C113.249 19.1607 113.832 20.2221 113.832 21.7015L113.834 21.7032ZM106.863 22.5427C106.617 22.4386 106.18 22.3866 105.554 22.3866H103.62L102.54 27.0814H104.474C105.233 27.0814 105.764 26.9912 106.067 26.8108C106.371 26.6304 106.579 26.2662 106.693 25.7147L107.148 23.7515C107.205 23.5243 107.233 23.3335 107.233 23.1826C107.233 22.86 107.11 22.6467 106.863 22.5427Z" fill="#31312E"/>
<path d="M146.999 21.9878C146.96 22.1022 146.922 22.1681 146.884 22.1872L137.125 32.914H144.552C144.647 32.914 144.675 33.0093 144.637 33.1984L143.641 37.4943C143.603 37.6642 143.537 37.751 143.442 37.751H128.187L129.187 33.3701C129.187 33.2747 129.253 33.162 129.387 33.0284L139.146 22.3884H131.862C131.766 22.3884 131.738 22.3034 131.777 22.1317L132.972 17.5514H147.999L146.999 21.9895V21.9878Z" fill="#31312E"/>
<path d="M79.0722 19.3775L74.7607 37.704H89.4798C90.5794 37.704 91.535 36.9479 91.7882 35.8761L96.0997 17.5495H81.3806C80.281 17.5495 79.3254 18.3057 79.0722 19.3775ZM86.1274 32.7248H82.2633L84.7312 22.5288H88.5953L86.1274 32.7248Z" fill="#31312E"/>
<path d="M85.3735 15.262H92.0645L92.5935 12.2998L85.658 13.9769L85.3735 15.262Z" fill="#31312E"/>
<path d="M73.7689 32.9121H66.5142L70.165 17.5478H63.8105C63.8105 17.5478 63.8105 17.5478 63.8087 17.5478H62.0467L61.9461 17.9849C62.5149 18.4913 63.2173 19.4573 62.8635 20.9904L59.0324 37.6052C58.9943 37.7006 59.0324 37.7474 59.1469 37.7474H72.6607C72.7561 37.7474 72.822 37.6624 72.8601 37.4907L73.8556 33.1948C73.8938 33.0058 73.8643 32.9104 73.7706 32.9104L73.7689 32.9121Z" fill="#31312E"/>
<path d="M130.449 17.5496H118.807C118.807 17.5496 118.803 17.5496 118.802 17.5496H115.066L114.967 17.9814C115.661 18.4653 116.485 19.3966 116.094 20.9679L112.156 37.6069C112.118 37.7023 112.156 37.7491 112.27 37.7491H125.784C125.86 37.7491 125.918 37.7023 125.956 37.6069L127.008 33.0543C127.047 32.959 127.008 32.9121 126.894 32.9121H119.639L120.35 29.8962H127.008C127.104 29.8962 127.17 29.8493 127.208 29.7539L128.233 25.3436C128.233 25.2482 128.195 25.2014 128.118 25.2014H121.433L122.086 22.3848H129.341C129.417 22.3848 129.473 22.338 129.511 22.2426L130.564 17.69C130.564 17.5947 130.526 17.5478 130.449 17.5478V17.5496Z" fill="#31312E"/>
</svg>
